<svg viewBox="0 0 860 190" width="860" xmlns="http://www.w3.org/2000/svg" font-family="-apple-system, BlinkMacSystemFont, 'Segoe UI', Helvetica, Arial, sans-serif">
<title>wise-men-flash: a pixel-art council of three, a Devil's Advocate, a practitioner in a hard hat and an analyst, beside a lightning bolt</title>
<rect width="860" height="190" rx="14" fill="#0d1117"/>
<rect x="12" y="158" width="216" height="20" fill="#161b22"/><rect x="12" y="158" width="216" height="3" fill="#262c34"/>
<rect x="84" y="144" width="72" height="34" fill="#161b22"/><rect x="84" y="144" width="72" height="3" fill="#b8740c"/>
<g shape-rendering="crispEdges"><rect x="27" y="93" width="5" height="5" fill="#120b09"/><rect x="72" y="93" width="5" height="5" fill="#120b09"/><rect x="22" y="98" width="5" height="5" fill="#120b09"/><rect x="32" y="98" width="5" height="5" fill="#120b09"/><rect x="67" y="98" width="5" height="5" fill="#120b09"/><rect x="77" y="98" width="5" height="5" fill="#120b09"/><rect x="22" y="103" width="5" height="5" fill="#120b09"/><rect x="37" y="103" width="5" height="5" fill="#120b09"/><rect x="62" y="103" width="5" height="5" fill="#120b09"/><rect x="77" y="103" width="5" height="5" fill="#120b09"/><rect x="27" y="108" width="5" height="5" fill="#120b09"/><rect x="42" y="108" width="5" height="5" fill="#120b09"/><rect x="47" y="108" width="5" height="5" fill="#120b09"/><rect x="52" y="108" width="5" height="5" fill="#120b09"/><rect x="57" y="108" width="5" height="5" fill="#120b09"/><rect x="72" y="108" width="5" height="5" fill="#120b09"/><rect x="22" y="113" width="5" height="5" fill="#120b09"/><rect x="77" y="113" width="5" height="5" fill="#120b09"/><rect x="22" y="118" width="5" height="5" fill="#120b09"/><rect x="77" y="118" width="5" height="5" fill="#120b09"/><rect x="22" y="123" width="5" height="5" fill="#120b09"/><rect x="77" y="123" width="5" height="5" fill="#120b09"/><rect x="22" y="128" width="5" height="5" fill="#120b09"/><rect x="77" y="128" width="5" height="5" fill="#120b09"/><rect x="17" y="133" width="5" height="5" fill="#120b09"/><rect x="82" y="133" width="5" height="5" fill="#120b09"/><rect x="17" y="138" width="5" height="5" fill="#120b09"/><rect x="82" y="138" width="5" height="5" fill="#120b09"/><rect x="22" y="143" width="5" height="5" fill="#120b09"/><rect x="77" y="143" width="5" height="5" fill="#120b09"/><rect x="27" y="148" width="5" height="5" fill="#120b09"/><rect x="37" y="148" width="5" height="5" fill="#120b09"/><rect x="47" y="148" width="5" height="5" fill="#120b09"/><rect x="52" y="148" width="5" height="5" fill="#120b09"/><rect x="62" y="148" width="5" height="5" fill="#120b09"/><rect x="72" y="148" width="5" height="5" fill="#120b09"/><rect x="27" y="153" width="5" height="5" fill="#120b09"/><rect x="37" y="153" width="5" height="5" fill="#120b09"/><rect x="47" y="153" width="5" height="5" fill="#120b09"/><rect x="52" y="153" width="5" height="5" fill="#120b09"/><rect x="62" y="153" width="5" height="5" fill="#120b09"/><rect x="72" y="153" width="5" height="5" fill="#120b09"/><rect x="32" y="158" width="5" height="5" fill="#120b09"/><rect x="42" y="158" width="5" height="5" fill="#120b09"/><rect x="57" y="158" width="5" height="5" fill="#120b09"/><rect x="67" y="158" width="5" height="5" fill="#120b09"/><rect x="27" y="98" width="5" height="5" fill="#b3303a"/><rect x="72" y="98" width="5" height="5" fill="#b3303a"/><rect x="27" y="103" width="5" height="5" fill="#b3303a"/><rect x="32" y="103" width="5" height="5" fill="#b3303a"/><rect x="67" y="103" width="5" height="5" fill="#b3303a"/><rect x="72" y="103" width="5" height="5" fill="#5e1117"/><rect x="32" y="108" width="5" height="5" fill="#b3303a"/><rect x="37" y="108" width="5" height="5" fill="#b3303a"/><rect x="62" y="108" width="5" height="5" fill="#b3303a"/><rect x="67" y="108" width="5" height="5" fill="#5e1117"/><rect x="27" y="113" width="5" height="5" fill="#e89272"/><rect x="32" y="113" width="5" height="5" fill="#16100e"/><rect x="37" y="113" width="5" height="5" fill="#16100e"/><rect x="42" y="113" width="5" height="5" fill="#e89272"/><rect x="47" y="113" width="5" height="5" fill="#e89272"/><rect x="52" y="113" width="5" height="5" fill="#e89272"/><rect x="57" y="113" width="5" height="5" fill="#e89272"/><rect x="62" y="113" width="5" height="5" fill="#16100e"/><rect x="67" y="113" width="5" height="5" fill="#16100e"/><rect x="72" y="113" width="5" height="5" fill="#e89272"/><rect x="27" y="118" width="5" height="5" fill="#e89272"/><rect x="32" y="118" width="5" height="5" fill="#d97757"/><rect x="37" y="118" width="5" height="5" fill="#d97757"/><rect x="42" y="118" width="5" height="5" fill="#16100e"/><rect x="47" y="118" width="5" height="5" fill="#d97757"/><rect x="52" y="118" width="5" height="5" fill="#d97757"/><rect x="57" y="118" width="5" height="5" fill="#16100e"/><rect x="62" y="118" width="5" height="5" fill="#d97757"/><rect x="67" y="118" width="5" height="5" fill="#d97757"/><rect x="72" y="118" width="5" height="5" fill="#a6563b"/><rect x="27" y="123" width="5" height="5" fill="#e89272"/><rect x="32" y="123" width="5" height="5" fill="#d97757"/><rect x="37" y="123" width="5" height="5" fill="#16100e"/><rect x="42" y="123" width="5" height="5" fill="#d97757"/><rect x="47" y="123" width="5" height="5" fill="#d97757"/><rect x="52" y="123" width="5" height="5" fill="#d97757"/><rect x="57" y="123" width="5" height="5" fill="#d97757"/><rect x="62" y="123" width="5" height="5" fill="#16100e"/><rect x="67" y="123" width="5" height="5" fill="#d97757"/><rect x="72" y="123" width="5" height="5" fill="#a6563b"/><rect x="27" y="128" width="5" height="5" fill="#e89272"/><rect x="32" y="128" width="5" height="5" fill="#d97757"/><rect x="37" y="128" width="5" height="5" fill="#16100e"/><rect x="42" y="128" width="5" height="5" fill="#d97757"/><rect x="47" y="128" width="5" height="5" fill="#d97757"/><rect x="52" y="128" width="5" height="5" fill="#d97757"/><rect x="57" y="128" width="5" height="5" fill="#d97757"/><rect x="62" y="128" width="5" height="5" fill="#16100e"/><rect x="67" y="128" width="5" height="5" fill="#d97757"/><rect x="72" y="128" width="5" height="5" fill="#a6563b"/><rect x="22" y="133" width="5" height="5" fill="#b3303a"/><rect x="27" y="133" width="5" height="5" fill="#8e1b24"/><rect x="32" y="133" width="5" height="5" fill="#8e1b24"/><rect x="37" y="133" width="5" height="5" fill="#8e1b24"/><rect x="42" y="133" width="5" height="5" fill="#8e1b24"/><rect x="47" y="133" width="5" height="5" fill="#5e1117"/><rect x="52" y="133" width="5" height="5" fill="#5e1117"/><rect x="57" y="133" width="5" height="5" fill="#8e1b24"/><rect x="62" y="133" width="5" height="5" fill="#8e1b24"/><rect x="67" y="133" width="5" height="5" fill="#8e1b24"/><rect x="72" y="133" width="5" height="5" fill="#8e1b24"/><rect x="77" y="133" width="5" height="5" fill="#b3303a"/><rect x="22" y="138" width="5" height="5" fill="#b3303a"/><rect x="27" y="138" width="5" height="5" fill="#8e1b24"/><rect x="32" y="138" width="5" height="5" fill="#8e1b24"/><rect x="37" y="138" width="5" height="5" fill="#8e1b24"/><rect x="42" y="138" width="5" height="5" fill="#8e1b24"/><rect x="47" y="138" width="5" height="5" fill="#8e1b24"/><rect x="52" y="138" width="5" height="5" fill="#8e1b24"/><rect x="57" y="138" width="5" height="5" fill="#8e1b24"/><rect x="62" y="138" width="5" height="5" fill="#8e1b24"/><rect x="67" y="138" width="5" height="5" fill="#8e1b24"/><rect x="72" y="138" width="5" height="5" fill="#8e1b24"/><rect x="77" y="138" width="5" height="5" fill="#5e1117"/><rect x="27" y="143" width="5" height="5" fill="#b3303a"/><rect x="32" y="143" width="5" height="5" fill="#8e1b24"/><rect x="37" y="143" width="5" height="5" fill="#5e1117"/><rect x="42" y="143" width="5" height="5" fill="#8e1b24"/><rect x="47" y="143" width="5" height="5" fill="#5e1117"/><rect x="52" y="143" width="5" height="5" fill="#5e1117"/><rect x="57" y="143" width="5" height="5" fill="#8e1b24"/><rect x="62" y="143" width="5" height="5" fill="#5e1117"/><rect x="67" y="143" width="5" height="5" fill="#8e1b24"/><rect x="72" y="143" width="5" height="5" fill="#5e1117"/><rect x="32" y="148" width="5" height="5" fill="#a6563b"/><rect x="42" y="148" width="5" height="5" fill="#a6563b"/><rect x="57" y="148" width="5" height="5" fill="#a6563b"/><rect x="67" y="148" width="5" height="5" fill="#a6563b"/><rect x="32" y="153" width="5" height="5" fill="#a6563b"/><rect x="42" y="153" width="5" height="5" fill="#a6563b"/><rect x="57" y="153" width="5" height="5" fill="#a6563b"/><rect x="67" y="153" width="5" height="5" fill="#a6563b"/><rect x="105" y="79" width="5" height="5" fill="#120b09"/><rect x="110" y="79" width="5" height="5" fill="#120b09"/><rect x="115" y="79" width="5" height="5" fill="#120b09"/><rect x="120" y="79" width="5" height="5" fill="#120b09"/><rect x="125" y="79" width="5" height="5" fill="#120b09"/><rect x="130" y="79" width="5" height="5" fill="#120b09"/><rect x="100" y="84" width="5" height="5" fill="#120b09"/><rect x="135" y="84" width="5" height="5" fill="#120b09"/><rect x="90" y="89" width="5" height="5" fill="#120b09"/><rect x="95" y="89" width="5" height="5" fill="#120b09"/><rect x="140" y="89" width="5" height="5" fill="#120b09"/><rect x="145" y="89" width="5" height="5" fill="#120b09"/><rect x="85" y="94" width="5" height="5" fill="#120b09"/><rect x="150" y="94" width="5" height="5" fill="#120b09"/><rect x="90" y="99" width="5" height="5" fill="#120b09"/><rect x="145" y="99" width="5" height="5" fill="#120b09"/><rect x="90" y="104" width="5" height="5" fill="#120b09"/><rect x="145" y="104" width="5" height="5" fill="#120b09"/><rect x="90" y="109" width="5" height="5" fill="#120b09"/><rect x="145" y="109" width="5" height="5" fill="#120b09"/><rect x="90" y="114" width="5" height="5" fill="#120b09"/><rect x="145" y="114" width="5" height="5" fill="#120b09"/><rect x="85" y="119" width="5" height="5" fill="#120b09"/><rect x="150" y="119" width="5" height="5" fill="#120b09"/><rect x="85" y="124" width="5" height="5" fill="#120b09"/><rect x="150" y="124" width="5" height="5" fill="#120b09"/><rect x="90" y="129" width="5" height="5" fill="#120b09"/><rect x="145" y="129" width="5" height="5" fill="#120b09"/><rect x="95" y="134" width="5" height="5" fill="#120b09"/><rect x="105" y="134" width="5" height="5" fill="#120b09"/><rect x="115" y="134" width="5" height="5" fill="#120b09"/><rect x="120" y="134" width="5" height="5" fill="#120b09"/><rect x="130" y="134" width="5" height="5" fill="#120b09"/><rect x="140" y="134" width="5" height="5" fill="#120b09"/><rect x="95" y="139" width="5" height="5" fill="#120b09"/><rect x="105" y="139" width="5" height="5" fill="#120b09"/><rect x="115" y="139" width="5" height="5" fill="#120b09"/><rect x="120" y="139" width="5" height="5" fill="#120b09"/><rect x="130" y="139" width="5" height="5" fill="#120b09"/><rect x="140" y="139" width="5" height="5" fill="#120b09"/><rect x="100" y="144" width="5" height="5" fill="#120b09"/><rect x="110" y="144" width="5" height="5" fill="#120b09"/><rect x="125" y="144" width="5" height="5" fill="#120b09"/><rect x="135" y="144" width="5" height="5" fill="#120b09"/><rect x="105" y="84" width="5" height="5" fill="#e5b04e"/><rect x="110" y="84" width="5" height="5" fill="#e5b04e"/><rect x="115" y="84" width="5" height="5" fill="#e5b04e"/><rect x="120" y="84" width="5" height="5" fill="#e5b04e"/><rect x="125" y="84" width="5" height="5" fill="#e5b04e"/><rect x="130" y="84" width="5" height="5" fill="#e5b04e"/><rect x="100" y="89" width="5" height="5" fill="#e5b04e"/><rect x="105" y="89" width="5" height="5" fill="#c48a22"/><rect x="110" y="89" width="5" height="5" fill="#c48a22"/><rect x="115" y="89" width="5" height="5" fill="#c48a22"/><rect x="120" y="89" width="5" height="5" fill="#c48a22"/><rect x="125" y="89" width="5" height="5" fill="#c48a22"/><rect x="130" y="89" width="5" height="5" fill="#c48a22"/><rect x="135" y="89" width="5" height="5" fill="#e5b04e"/><rect x="90" y="94" width="5" height="5" fill="#e5b04e"/><rect x="95" y="94" width="5" height="5" fill="#e5b04e"/><rect x="100" y="94" width="5" height="5" fill="#c48a22"/><rect x="105" y="94" width="5" height="5" fill="#c48a22"/><rect x="110" y="94" width="5" height="5" fill="#c48a22"/><rect x="115" y="94" width="5" height="5" fill="#c48a22"/><rect x="120" y="94" width="5" height="5" fill="#c48a22"/><rect x="125" y="94" width="5" height="5" fill="#c48a22"/><rect x="130" y="94" width="5" height="5" fill="#c48a22"/><rect x="135" y="94" width="5" height="5" fill="#c48a22"/><rect x="140" y="94" width="5" height="5" fill="#e5b04e"/><rect x="145" y="94" width="5" height="5" fill="#e5b04e"/><rect x="95" y="99" width="5" height="5" fill="#e89272"/><rect x="100" y="99" width="5" height="5" fill="#16100e"/><rect x="105" y="99" width="5" height="5" fill="#16100e"/><rect x="110" y="99" width="5" height="5" fill="#16100e"/><rect x="115" y="99" width="5" height="5" fill="#d97757"/><rect x="120" y="99" width="5" height="5" fill="#d97757"/><rect x="125" y="99" width="5" height="5" fill="#16100e"/><rect x="130" y="99" width="5" height="5" fill="#16100e"/><rect x="135" y="99" width="5" height="5" fill="#16100e"/><rect x="140" y="99" width="5" height="5" fill="#a6563b"/><rect x="95" y="104" width="5" height="5" fill="#e89272"/><rect x="100" y="104" width="5" height="5" fill="#d97757"/><rect x="105" y="104" width="5" height="5" fill="#d97757"/><rect x="110" y="104" width="5" height="5" fill="#d97757"/><rect x="115" y="104" width="5" height="5" fill="#d97757"/><rect x="120" y="104" width="5" height="5" fill="#d97757"/><rect x="125" y="104" width="5" height="5" fill="#d97757"/><rect x="130" y="104" width="5" height="5" fill="#d97757"/><rect x="135" y="104" width="5" height="5" fill="#d97757"/><rect x="140" y="104" width="5" height="5" fill="#a6563b"/><rect x="95" y="109" width="5" height="5" fill="#e89272"/><rect x="100" y="109" width="5" height="5" fill="#d97757"/><rect x="105" y="109" width="5" height="5" fill="#16100e"/><rect x="110" y="109" width="5" height="5" fill="#d97757"/><rect x="115" y="109" width="5" height="5" fill="#d97757"/><rect x="120" y="109" width="5" height="5" fill="#d97757"/><rect x="125" y="109" width="5" height="5" fill="#d97757"/><rect x="130" y="109" width="5" height="5" fill="#16100e"/><rect x="135" y="109" width="5" height="5" fill="#d97757"/><rect x="140" y="109" width="5" height="5" fill="#a6563b"/><rect x="95" y="114" width="5" height="5" fill="#e89272"/><rect x="100" y="114" width="5" height="5" fill="#d97757"/><rect x="105" y="114" width="5" height="5" fill="#16100e"/><rect x="110" y="114" width="5" height="5" fill="#d97757"/><rect x="115" y="114" width="5" height="5" fill="#d97757"/><rect x="120" y="114" width="5" height="5" fill="#d97757"/><rect x="125" y="114" width="5" height="5" fill="#d97757"/><rect x="130" y="114" width="5" height="5" fill="#16100e"/><rect x="135" y="114" width="5" height="5" fill="#d97757"/><rect x="140" y="114" width="5" height="5" fill="#a6563b"/><rect x="90" y="119" width="5" height="5" fill="#474d57"/><rect x="95" y="119" width="5" height="5" fill="#30353d"/><rect x="100" y="119" width="5" height="5" fill="#30353d"/><rect x="105" y="119" width="5" height="5" fill="#30353d"/><rect x="110" y="119" width="5" height="5" fill="#30353d"/><rect x="115" y="119" width="5" height="5" fill="#30353d"/><rect x="120" y="119" width="5" height="5" fill="#30353d"/><rect x="125" y="119" width="5" height="5" fill="#30353d"/><rect x="130" y="119" width="5" height="5" fill="#30353d"/><rect x="135" y="119" width="5" height="5" fill="#30353d"/><rect x="140" y="119" width="5" height="5" fill="#30353d"/><rect x="145" y="119" width="5" height="5" fill="#474d57"/><rect x="90" y="124" width="5" height="5" fill="#474d57"/><rect x="95" y="124" width="5" height="5" fill="#d4a72c"/><rect x="100" y="124" width="5" height="5" fill="#30353d"/><rect x="105" y="124" width="5" height="5" fill="#30353d"/><rect x="110" y="124" width="5" height="5" fill="#30353d"/><rect x="115" y="124" width="5" height="5" fill="#30353d"/><rect x="120" y="124" width="5" height="5" fill="#30353d"/><rect x="125" y="124" width="5" height="5" fill="#30353d"/><rect x="130" y="124" width="5" height="5" fill="#30353d"/><rect x="135" y="124" width="5" height="5" fill="#30353d"/><rect x="140" y="124" width="5" height="5" fill="#d4a72c"/><rect x="145" y="124" width="5" height="5" fill="#1f2329"/><rect x="95" y="129" width="5" height="5" fill="#474d57"/><rect x="100" y="129" width="5" height="5" fill="#30353d"/><rect x="105" y="129" width="5" height="5" fill="#1f2329"/><rect x="110" y="129" width="5" height="5" fill="#30353d"/><rect x="115" y="129" width="5" height="5" fill="#1f2329"/><rect x="120" y="129" width="5" height="5" fill="#1f2329"/><rect x="125" y="129" width="5" height="5" fill="#30353d"/><rect x="130" y="129" width="5" height="5" fill="#1f2329"/><rect x="135" y="129" width="5" height="5" fill="#30353d"/><rect x="140" y="129" width="5" height="5" fill="#1f2329"/><rect x="100" y="134" width="5" height="5" fill="#a6563b"/><rect x="110" y="134" width="5" height="5" fill="#a6563b"/><rect x="125" y="134" width="5" height="5" fill="#a6563b"/><rect x="135" y="134" width="5" height="5" fill="#a6563b"/><rect x="100" y="139" width="5" height="5" fill="#a6563b"/><rect x="110" y="139" width="5" height="5" fill="#a6563b"/><rect x="125" y="139" width="5" height="5" fill="#a6563b"/><rect x="135" y="139" width="5" height="5" fill="#a6563b"/><rect x="163" y="108" width="5" height="5" fill="#120b09"/><rect x="168" y="108" width="5" height="5" fill="#120b09"/><rect x="173" y="108" width="5" height="5" fill="#120b09"/><rect x="178" y="108" width="5" height="5" fill="#120b09"/><rect x="183" y="108" width="5" height="5" fill="#120b09"/><rect x="188" y="108" width="5" height="5" fill="#120b09"/><rect x="193" y="108" width="5" height="5" fill="#120b09"/><rect x="198" y="108" width="5" height="5" fill="#120b09"/><rect x="203" y="108" width="5" height="5" fill="#120b09"/><rect x="208" y="108" width="5" height="5" fill="#120b09"/><rect x="158" y="113" width="5" height="5" fill="#120b09"/><rect x="213" y="113" width="5" height="5" fill="#120b09"/><rect x="158" y="118" width="5" height="5" fill="#120b09"/><rect x="213" y="118" width="5" height="5" fill="#120b09"/><rect x="158" y="123" width="5" height="5" fill="#120b09"/><rect x="213" y="123" width="5" height="5" fill="#120b09"/><rect x="158" y="128" width="5" height="5" fill="#120b09"/><rect x="213" y="128" width="5" height="5" fill="#120b09"/><rect x="153" y="133" width="5" height="5" fill="#120b09"/><rect x="218" y="133" width="5" height="5" fill="#120b09"/><rect x="153" y="138" width="5" height="5" fill="#120b09"/><rect x="218" y="138" width="5" height="5" fill="#120b09"/><rect x="158" y="143" width="5" height="5" fill="#120b09"/><rect x="213" y="143" width="5" height="5" fill="#120b09"/><rect x="163" y="148" width="5" height="5" fill="#120b09"/><rect x="173" y="148" width="5" height="5" fill="#120b09"/><rect x="183" y="148" width="5" height="5" fill="#120b09"/><rect x="188" y="148" width="5" height="5" fill="#120b09"/><rect x="198" y="148" width="5" height="5" fill="#120b09"/><rect x="208" y="148" width="5" height="5" fill="#120b09"/><rect x="163" y="153" width="5" height="5" fill="#120b09"/><rect x="173" y="153" width="5" height="5" fill="#120b09"/><rect x="183" y="153" width="5" height="5" fill="#120b09"/><rect x="188" y="153" width="5" height="5" fill="#120b09"/><rect x="198" y="153" width="5" height="5" fill="#120b09"/><rect x="208" y="153" width="5" height="5" fill="#120b09"/><rect x="168" y="158" width="5" height="5" fill="#120b09"/><rect x="178" y="158" width="5" height="5" fill="#120b09"/><rect x="193" y="158" width="5" height="5" fill="#120b09"/><rect x="203" y="158" width="5" height="5" fill="#120b09"/><rect x="163" y="113" width="5" height="5" fill="#e89272"/><rect x="168" y="113" width="5" height="5" fill="#e89272"/><rect x="173" y="113" width="5" height="5" fill="#e89272"/><rect x="178" y="113" width="5" height="5" fill="#e89272"/><rect x="183" y="113" width="5" height="5" fill="#e89272"/><rect x="188" y="113" width="5" height="5" fill="#e89272"/><rect x="193" y="113" width="5" height="5" fill="#e89272"/><rect x="198" y="113" width="5" height="5" fill="#e89272"/><rect x="203" y="113" width="5" height="5" fill="#e89272"/><rect x="208" y="113" width="5" height="5" fill="#e89272"/><rect x="163" y="118" width="5" height="5" fill="#e89272"/><rect x="168" y="118" width="5" height="5" fill="#16100e"/><rect x="173" y="118" width="5" height="5" fill="#16100e"/><rect x="178" y="118" width="5" height="5" fill="#16100e"/><rect x="183" y="118" width="5" height="5" fill="#d97757"/><rect x="188" y="118" width="5" height="5" fill="#d97757"/><rect x="193" y="118" width="5" height="5" fill="#16100e"/><rect x="198" y="118" width="5" height="5" fill="#16100e"/><rect x="203" y="118" width="5" height="5" fill="#16100e"/><rect x="208" y="118" width="5" height="5" fill="#a6563b"/><rect x="163" y="123" width="5" height="5" fill="#e89272"/><rect x="168" y="123" width="5" height="5" fill="#16100e"/><rect x="173" y="123" width="5" height="5" fill="#9fb0c2"/><rect x="178" y="123" width="5" height="5" fill="#16100e"/><rect x="183" y="123" width="5" height="5" fill="#16100e"/><rect x="188" y="123" width="5" height="5" fill="#16100e"/><rect x="193" y="123" width="5" height="5" fill="#16100e"/><rect x="198" y="123" width="5" height="5" fill="#9fb0c2"/><rect x="203" y="123" width="5" height="5" fill="#16100e"/><rect x="208" y="123" width="5" height="5" fill="#a6563b"/><rect x="163" y="128" width="5" height="5" fill="#e89272"/><rect x="168" y="128" width="5" height="5" fill="#16100e"/><rect x="173" y="128" width="5" height="5" fill="#16100e"/><rect x="178" y="128" width="5" height="5" fill="#16100e"/><rect x="183" y="128" width="5" height="5" fill="#d97757"/><rect x="188" y="128" width="5" height="5" fill="#d97757"/><rect x="193" y="128" width="5" height="5" fill="#16100e"/><rect x="198" y="128" width="5" height="5" fill="#16100e"/><rect x="203" y="128" width="5" height="5" fill="#16100e"/><rect x="208" y="128" width="5" height="5" fill="#a6563b"/><rect x="158" y="133" width="5" height="5" fill="#474d57"/><rect x="163" y="133" width="5" height="5" fill="#30353d"/><rect x="168" y="133" width="5" height="5" fill="#30353d"/><rect x="173" y="133" width="5" height="5" fill="#30353d"/><rect x="178" y="133" width="5" height="5" fill="#4a505a"/><rect x="183" y="133" width="5" height="5" fill="#5e1117"/><rect x="188" y="133" width="5" height="5" fill="#5e1117"/><rect x="193" y="133" width="5" height="5" fill="#4a505a"/><rect x="198" y="133" width="5" height="5" fill="#30353d"/><rect x="203" y="133" width="5" height="5" fill="#30353d"/><rect x="208" y="133" width="5" height="5" fill="#30353d"/><rect x="213" y="133" width="5" height="5" fill="#474d57"/><rect x="158" y="138" width="5" height="5" fill="#474d57"/><rect x="163" y="138" width="5" height="5" fill="#30353d"/><rect x="168" y="138" width="5" height="5" fill="#30353d"/><rect x="173" y="138" width="5" height="5" fill="#30353d"/><rect x="178" y="138" width="5" height="5" fill="#4a505a"/><rect x="183" y="138" width="5" height="5" fill="#8e1b24"/><rect x="188" y="138" width="5" height="5" fill="#8e1b24"/><rect x="193" y="138" width="5" height="5" fill="#4a505a"/><rect x="198" y="138" width="5" height="5" fill="#30353d"/><rect x="203" y="138" width="5" height="5" fill="#30353d"/><rect x="208" y="138" width="5" height="5" fill="#30353d"/><rect x="213" y="138" width="5" height="5" fill="#1f2329"/><rect x="163" y="143" width="5" height="5" fill="#474d57"/><rect x="168" y="143" width="5" height="5" fill="#30353d"/><rect x="173" y="143" width="5" height="5" fill="#1f2329"/><rect x="178" y="143" width="5" height="5" fill="#30353d"/><rect x="183" y="143" width="5" height="5" fill="#8e1b24"/><rect x="188" y="143" width="5" height="5" fill="#8e1b24"/><rect x="193" y="143" width="5" height="5" fill="#30353d"/><rect x="198" y="143" width="5" height="5" fill="#1f2329"/><rect x="203" y="143" width="5" height="5" fill="#30353d"/><rect x="208" y="143" width="5" height="5" fill="#1f2329"/><rect x="168" y="148" width="5" height="5" fill="#a6563b"/><rect x="178" y="148" width="5" height="5" fill="#a6563b"/><rect x="193" y="148" width="5" height="5" fill="#a6563b"/><rect x="203" y="148" width="5" height="5" fill="#a6563b"/><rect x="168" y="153" width="5" height="5" fill="#a6563b"/><rect x="178" y="153" width="5" height="5" fill="#a6563b"/><rect x="193" y="153" width="5" height="5" fill="#a6563b"/><rect x="203" y="153" width="5" height="5" fill="#a6563b"/><rect x="270" y="29" width="5" height="5" fill="#120b09"/><rect x="275" y="29" width="5" height="5" fill="#120b09"/><rect x="280" y="29" width="5" height="5" fill="#120b09"/><rect x="285" y="29" width="5" height="5" fill="#120b09"/><rect x="265" y="34" width="5" height="5" fill="#120b09"/><rect x="290" y="34" width="5" height="5" fill="#120b09"/><rect x="260" y="39" width="5" height="5" fill="#120b09"/><rect x="285" y="39" width="5" height="5" fill="#120b09"/><rect x="260" y="44" width="5" height="5" fill="#120b09"/><rect x="280" y="44" width="5" height="5" fill="#120b09"/><rect x="255" y="49" width="5" height="5" fill="#120b09"/><rect x="280" y="49" width="5" height="5" fill="#120b09"/><rect x="255" y="54" width="5" height="5" fill="#120b09"/><rect x="275" y="54" width="5" height="5" fill="#120b09"/><rect x="250" y="59" width="5" height="5" fill="#120b09"/><rect x="275" y="59" width="5" height="5" fill="#120b09"/><rect x="280" y="59" width="5" height="5" fill="#120b09"/><rect x="285" y="59" width="5" height="5" fill="#120b09"/><rect x="250" y="64" width="5" height="5" fill="#120b09"/><rect x="290" y="64" width="5" height="5" fill="#120b09"/><rect x="245" y="69" width="5" height="5" fill="#120b09"/><rect x="285" y="69" width="5" height="5" fill="#120b09"/><rect x="250" y="74" width="5" height="5" fill="#120b09"/><rect x="255" y="74" width="5" height="5" fill="#120b09"/><rect x="260" y="74" width="5" height="5" fill="#120b09"/><rect x="265" y="74" width="5" height="5" fill="#120b09"/><rect x="285" y="74" width="5" height="5" fill="#120b09"/><rect x="260" y="79" width="5" height="5" fill="#120b09"/><rect x="280" y="79" width="5" height="5" fill="#120b09"/><rect x="260" y="84" width="5" height="5" fill="#120b09"/><rect x="275" y="84" width="5" height="5" fill="#120b09"/><rect x="255" y="89" width="5" height="5" fill="#120b09"/><rect x="275" y="89" width="5" height="5" fill="#120b09"/><rect x="255" y="94" width="5" height="5" fill="#120b09"/><rect x="270" y="94" width="5" height="5" fill="#120b09"/><rect x="250" y="99" width="5" height="5" fill="#120b09"/><rect x="265" y="99" width="5" height="5" fill="#120b09"/><rect x="250" y="104" width="5" height="5" fill="#120b09"/><rect x="260" y="104" width="5" height="5" fill="#120b09"/><rect x="245" y="109" width="5" height="5" fill="#120b09"/><rect x="255" y="109" width="5" height="5" fill="#120b09"/><rect x="250" y="114" width="5" height="5" fill="#120b09"/><rect x="270" y="34" width="5" height="5" fill="#ffe08a"/><rect x="275" y="34" width="5" height="5" fill="#ffe08a"/><rect x="280" y="34" width="5" height="5" fill="#ffe08a"/><rect x="285" y="34" width="5" height="5" fill="#ffe08a"/><rect x="265" y="39" width="5" height="5" fill="#ffe08a"/><rect x="270" y="39" width="5" height="5" fill="#f2b632"/><rect x="275" y="39" width="5" height="5" fill="#f2b632"/><rect x="280" y="39" width="5" height="5" fill="#b97f12"/><rect x="265" y="44" width="5" height="5" fill="#ffe08a"/><rect x="270" y="44" width="5" height="5" fill="#f2b632"/><rect x="275" y="44" width="5" height="5" fill="#b97f12"/><rect x="260" y="49" width="5" height="5" fill="#ffe08a"/><rect x="265" y="49" width="5" height="5" fill="#f2b632"/><rect x="270" y="49" width="5" height="5" fill="#f2b632"/><rect x="275" y="49" width="5" height="5" fill="#b97f12"/><rect x="260" y="54" width="5" height="5" fill="#ffe08a"/><rect x="265" y="54" width="5" height="5" fill="#f2b632"/><rect x="270" y="54" width="5" height="5" fill="#b97f12"/><rect x="255" y="59" width="5" height="5" fill="#ffe08a"/><rect x="260" y="59" width="5" height="5" fill="#f2b632"/><rect x="265" y="59" width="5" height="5" fill="#f2b632"/><rect x="270" y="59" width="5" height="5" fill="#b97f12"/><rect x="255" y="64" width="5" height="5" fill="#ffe08a"/><rect x="260" y="64" width="5" height="5" fill="#f2b632"/><rect x="265" y="64" width="5" height="5" fill="#f2b632"/><rect x="270" y="64" width="5" height="5" fill="#f2b632"/><rect x="275" y="64" width="5" height="5" fill="#ffe08a"/><rect x="280" y="64" width="5" height="5" fill="#ffe08a"/><rect x="285" y="64" width="5" height="5" fill="#ffe08a"/><rect x="250" y="69" width="5" height="5" fill="#ffe08a"/><rect x="255" y="69" width="5" height="5" fill="#b97f12"/><rect x="260" y="69" width="5" height="5" fill="#b97f12"/><rect x="265" y="69" width="5" height="5" fill="#b97f12"/><rect x="270" y="69" width="5" height="5" fill="#f2b632"/><rect x="275" y="69" width="5" height="5" fill="#f2b632"/><rect x="280" y="69" width="5" height="5" fill="#b97f12"/><rect x="270" y="74" width="5" height="5" fill="#ffe08a"/><rect x="275" y="74" width="5" height="5" fill="#f2b632"/><rect x="280" y="74" width="5" height="5" fill="#b97f12"/><rect x="265" y="79" width="5" height="5" fill="#ffe08a"/><rect x="270" y="79" width="5" height="5" fill="#f2b632"/><rect x="275" y="79" width="5" height="5" fill="#b97f12"/><rect x="265" y="84" width="5" height="5" fill="#ffe08a"/><rect x="270" y="84" width="5" height="5" fill="#b97f12"/><rect x="260" y="89" width="5" height="5" fill="#ffe08a"/><rect x="265" y="89" width="5" height="5" fill="#f2b632"/><rect x="270" y="89" width="5" height="5" fill="#b97f12"/><rect x="260" y="94" width="5" height="5" fill="#ffe08a"/><rect x="265" y="94" width="5" height="5" fill="#b97f12"/><rect x="255" y="99" width="5" height="5" fill="#ffe08a"/><rect x="260" y="99" width="5" height="5" fill="#b97f12"/><rect x="255" y="104" width="5" height="5" fill="#ffe08a"/><rect x="250" y="109" width="5" height="5" fill="#ffe08a"/></g>
<rect x="316" y="50" width="14" height="4" fill="#e2a336"/><text x="338" y="56" font-size="11" font-weight="700" fill="#8b949e" text-anchor="start" letter-spacing="3">FAST COUNCIL · FOUR CALLS</text>
<text x="314" y="106" font-size="50" font-weight="800" fill="#f0f6fc" text-anchor="start" letter-spacing="-1.5">wise-men-<tspan fill="#e2a336">flash</tspan></text>
<text x="316" y="134" font-size="15" font-weight="400" fill="#9198a1" text-anchor="start" >Three Claude subagents down three reasoning paths, one checked</text>
<text x="316" y="154" font-size="15" font-weight="400" fill="#9198a1" text-anchor="start" >decision memo, dissent intact — in a third of the full council's time.</text>
</svg>
